<svg xmlns="http://www.w3.org/2000/svg" width="17" height="16" viewBox="0 0 17 16" fill="none">
  <g clip-path="url(#clip0_2_56)">
    <path d="M9 0H12.8781C13.275 0 13.6562 0.159375 13.9375 0.440625L16.0594 2.5625C16.3406 2.84375 16.5 3.225 16.5 3.62188V10.5C16.5 11.3281 15.8281 12 15 12H9C8.17188 12 7.5 11.3281 7.5 10.5V1.5C7.5 0.671875 8.17188 0 9 0ZM2 4H6.5V6H2.5V14H8.5V13H10.5V14.5C10.5 15.3281 9.82812 16 9 16H2C1.17188 16 0.5 15.3281 0.5 14.5V5.5C0.5 4.67188 1.17188 4 2 4Z" fill="#374151"/>
  </g>
  <defs>
    <clipPath id="clip0_2_56">
      <path d="M0.5 0H16.5V16H0.5V0Z" fill="white"/>
    </clipPath>
  </defs>
</svg>