<svg xmlns="http://www.w3.org/2000/svg" width="22" height="19" viewBox="0 0 22 19" fill="none">
  <g clip-path="url(#clip0_2_34)">
    <path d="M9.06367 1.75117L7.73828 2.24687C7.63281 2.28555 7.5625 2.3875 7.5625 2.5C7.5625 2.6125 7.63281 2.71445 7.73828 2.75312L9.06367 3.24883L9.55937 4.57422C9.59805 4.67969 9.7 4.75 9.8125 4.75C9.925 4.75 10.027 4.67969 10.0656 4.57422L10.5613 3.24883L11.8867 2.75312C11.9922 2.71445 12.0625 2.6125 12.0625 2.5C12.0625 2.3875 11.9922 2.28555 11.8867 2.24687L10.5613 1.75117L10.0656 0.425781C10.027 0.320312 9.925 0.25 9.8125 0.25C9.7 0.25 9.59805 0.320312 9.55937 0.425781L9.06367 1.75117ZM2.4332 14.1508C1.77578 14.8082 1.77578 15.877 2.4332 16.5379L3.64961 17.7543C4.30703 18.4117 5.37578 18.4117 6.03672 17.7543L19.4418 4.3457C20.0992 3.68828 20.0992 2.61953 19.4418 1.95859L18.2254 0.745703C17.568 0.0882812 16.4992 0.0882812 15.8383 0.745703L2.4332 14.1508ZM17.8492 3.15391L14.1578 6.84531L13.3387 6.02617L17.0301 2.33477L17.8492 3.15391ZM1.07617 4.37031C0.917969 4.43008 0.8125 4.58125 0.8125 4.75C0.8125 4.91875 0.917969 5.06992 1.07617 5.12969L3.0625 5.875L3.80781 7.86133C3.86758 8.01953 4.01875 8.125 4.1875 8.125C4.35625 8.125 4.50742 8.01953 4.56719 7.86133L5.3125 5.875L7.29883 5.12969C7.45703 5.06992 7.5625 4.91875 7.5625 4.75C7.5625 4.58125 7.45703 4.43008 7.29883 4.37031L5.3125 3.625L4.56719 1.63867C4.50742 1.48047 4.35625 1.375 4.1875 1.375C4.01875 1.375 3.86758 1.48047 3.80781 1.63867L3.0625 3.625L1.07617 4.37031ZM13.4512 13.3703C13.293 13.4301 13.1875 13.5813 13.1875 13.75C13.1875 13.9187 13.293 14.0699 13.4512 14.1297L15.4375 14.875L16.1828 16.8613C16.2426 17.0195 16.3938 17.125 16.5625 17.125C16.7312 17.125 16.8824 17.0195 16.9422 16.8613L17.6875 14.875L19.6738 14.1297C19.832 14.0699 19.9375 13.9187 19.9375 13.75C19.9375 13.5813 19.832 13.4301 19.6738 13.3703L17.6875 12.625L16.9422 10.6387C16.8824 10.4805 16.7312 10.375 16.5625 10.375C16.3938 10.375 16.2426 10.4805 16.1828 10.6387L15.4375 12.625L13.4512 13.3703Z" fill="white"/>
  </g>
  <defs>
    <clipPath id="clip0_2_34">
      <path d="M0.8125 0.25H21.0625V18.25H0.8125V0.25Z" fill="white"/>
    </clipPath>
  </defs>
</svg>