<svg xmlns="http://www.w3.org/2000/svg" width="60" height="48" viewBox="0 0 60 48" fill="none">
  <path d="M0 0H60V48H0V0Z" stroke="none"/>
  <path d="M13.5 45C6.04688 45 0 38.9531 0 31.5C0 25.6125 3.76875 20.6063 9.01875 18.7594C9.00937 18.5063 9 18.2531 9 18C9 9.7125 15.7125 3 24 3C29.5594 3 34.4062 6.01875 37.0031 10.5187C38.4281 9.5625 40.1531 9 42 9C46.9688 9 51 13.0312 51 18C51 19.1437 50.7844 20.2313 50.4 21.2438C55.875 22.35 60 27.1969 60 33C60 39.6281 54.6281 45 48 45H13.5ZM20.9062 24.6562C20.025 25.5375 20.025 26.9625 20.9062 27.8344C21.7875 28.7062 23.2125 28.7156 24.0844 27.8344L27.7406 24.1781V36.75C27.7406 37.9969 28.7437 39 29.9906 39C31.2375 39 32.2406 37.9969 32.2406 36.75V24.1781L35.8969 27.8344C36.7781 28.7156 38.2031 28.7156 39.075 27.8344C39.9469 26.9531 39.9562 25.5281 39.075 24.6562L31.575 17.1562C30.6937 16.275 29.2687 16.275 28.3969 17.1562L20.8969 24.6562H20.9062Z" fill="#A855F7"/>
</svg>